<?xml version="1.0" standalone="no"?>
<!DOCTYPE svg PUBLIC "-//W3C//DTD SVG 20010904//EN"
 "http://www.w3.org/TR/2001/REC-SVG-20010904/DTD/svg10.dtd">
<svg version="1.0" xmlns="http://www.w3.org/2000/svg"
 width="1000.000000pt" height="1000.000000pt" viewBox="0 0 1000.000000 1000.000000"
 preserveAspectRatio="xMidYMid meet">
<metadata>
Created by potrace 1.16, written by Peter Selinger 2001-2019
</metadata>
<g transform="translate(0.000000,1000.000000) scale(0.100000,-0.100000)"
fill="#000000" stroke="none">
<path d="M4837 9130 c-74 -13 -166 -45 -377 -132 -565 -232 -2095 -867 -2195
-910 -206 -89 -379 -257 -474 -459 -22 -46 -93 -214 -159 -374 -66 -159 -250
-605 -410 -990 -519 -1252 -474 -1136 -493 -1300 -10 -80 -10 -125 0 -203 15
-124 38 -200 131 -422 145 -350 635 -1533 762 -1840 153 -371 185 -441 235
-518 48 -71 137 -168 206 -220 109 -85 54 -60 1507 -662 918 -381 1043 -432
1110 -455 194 -69 415 -73 600 -13 61 20 298 116 1290 528 228 95 561 233 740
306 456 189 463 192 543 242 144 88 257 209 334 357 22 44 106 238 186 430 80
193 238 575 352 850 553 1333 527 1265 545 1437 10 103 1 214 -26 323 -18 69
-43 130 -434 1075 -538 1299 -582 1405 -613 1465 -98 195 -249 341 -451 435
-44 21 -436 185 -871 365 -434 180 -947 392 -1140 472 -410 170 -462 189 -574
208 -89 16 -244 18 -324 5z m368 -109 c60 -15 544 -213 1845 -753 146 -61 340
-141 432 -179 325 -133 428 -199 543 -349 66 -86 98 -149 203 -406 55 -131
282 -680 505 -1219 222 -539 413 -1011 423 -1050 27 -107 25 -306 -4 -409 -26
-92 -21 -78 -482 -1191 -194 -467 -390 -942 -437 -1055 -46 -113 -100 -236
-119 -275 -71 -145 -201 -283 -339 -360 -74 -42 -82 -45 -1110 -470 -462 -191
-958 -396 -1102 -456 -318 -132 -374 -149 -519 -156 -179 -9 -245 6 -524 122
-199 83 -1938 803 -2105 871 -255 105 -380 202 -489 377 -25 40 -116 243 -204
457 -901 2169 -872 2095 -893 2232 -13 85 -6 224 16 317 9 36 187 479 397 985
210 507 437 1056 505 1221 68 165 138 325 155 355 79 140 199 260 338 338 62
35 25 19 1160 489 459 190 948 392 1086 449 230 95 320 125 414 137 66 9 235
-3 305 -22z"/>
<path d="M4820 7477 c-111 -46 -579 -283 -604 -307 -12 -11 -26 -20 -30 -20
-9 0 -159 -89 -211 -125 -127 -87 -204 -150 -195 -159 12 -12 61 21 75 52 5
11 19 23 31 26 12 3 95 55 185 114 200 133 383 237 400 226 8 -5 9 -3 4 6 -6
10 -4 12 11 6 10 -4 15 -4 11 0 -4 4 7 16 23 26 34 20 44 23 35 8 -3 -5 -3
-10 0 -10 12 0 261 127 309 158 61 39 53 39 -44 -1z"/>
<path d="M5315 7479 c-27 -11 -93 -36 -145 -55 -229 -85 -557 -237 -552 -255
1 -6 -2 -8 -8 -4 -10 6 -166 -76 -265 -140 -28 -17 -62 -38 -75 -44 -22 -11
-21 -9 5 13 27 23 23 22 -27 -6 -31 -18 -55 -34 -53 -36 2 -2 13 1 24 8 37 19
23 5 -43 -43 -43 -32 -70 -45 -83 -41 -14 4 -15 4 -4 -4 11 -8 9 -12 -10 -22
-13 -7 -37 -26 -54 -42 -40 -40 -62 -51 -62 -33 0 8 4 12 8 9 5 -3 25 11 46
30 47 44 30 47 -23 5 -22 -17 -55 -43 -74 -57 -19 -15 -62 -54 -96 -87 -35
-33 -88 -84 -119 -113 -49 -46 -143 -149 -105 -114 8 6 22 12 33 12 11 0 15 4
11 12 -4 7 -3 8 5 4 20 -13 83 16 130 59 52 47 205 172 277 225 71 53 185 125
422 267 20 13 57 30 82 39 25 9 109 48 186 85 78 38 147 69 153 69 12 0 203
71 266 100 22 9 58 23 80 30 22 6 84 28 137 48 81 29 96 37 86 49 -9 12 -90
54 -100 53 -2 -1 -25 -10 -53 -21z"/>
<path d="M5558 7384 c-3 -3 -21 -7 -39 -9 -34 -5 -112 -21 -159 -35 l-25 -7
22 -11 c16 -9 29 -9 50 -1 35 14 151 39 178 39 16 0 17 -2 5 -9 -8 -6 -17 -8
-20 -6 -4 2 -31 -2 -60 -10 -29 -8 -56 -14 -59 -13 -3 1 -13 -1 -21 -5 -8 -3
-21 -7 -29 -9 -8 -2 27 -28 77 -57 51 -29 95 -58 99 -65 10 -16 53 -40 53 -29
0 4 4 3 8 -2 8 -13 111 -90 162 -124 31 -20 33 -21 11 -2 -57 50 12 22 101
-42 40 -29 45 -31 18 -7 -19 16 -37 30 -41 30 -4 0 -9 7 -13 15 -6 17 8 12 77
-32 22 -14 41 -22 45 -19 3 3 12 0 21 -7 9 -6 0 8 -19 32 -58 75 -232 245
-305 298 -38 29 -82 61 -97 72 -28 23 -32 24 -40 15z"/>
<path d="M5260 7311 c0 -5 -21 -12 -47 -16 -58 -8 -189 -47 -258 -77 -27 -11
-65 -27 -82 -35 -47 -20 -41 -26 7 -7 23 9 43 14 46 12 2 -3 -24 -16 -58 -28
-35 -13 -87 -34 -115 -48 -29 -13 -59 -22 -66 -19 -7 2 -30 -6 -52 -19 -22
-13 -51 -28 -65 -34 -45 -19 -93 -44 -160 -84 -36 -21 -77 -44 -91 -50 -34
-15 -179 -109 -179 -117 0 -4 28 -12 63 -18 34 -7 73 -15 86 -18 17 -4 22 -2
17 6 -14 23 45 10 164 -35 92 -34 166 -54 146 -39 -11 8 -25 15 -32 15 -6 0
-17 7 -24 15 -8 10 19 1 63 -19 43 -19 77 -33 77 -31 0 3 -30 20 -67 39 -38
19 -81 46 -98 60 l-30 27 30 -6 30 -7 -25 21 -25 22 30 -7 c17 -4 40 -11 53
-15 44 -17 58 -10 25 12 -18 12 -33 23 -33 26 0 11 79 -8 133 -32 31 -13 64
-22 73 -18 13 5 15 3 9 -7 -5 -9 -4 -11 4 -6 16 10 -1 30 -40 46 -16 7 -28 15
-25 17 2 3 14 0 25 -7 26 -14 30 6 4 25 -9 7 -14 19 -11 27 7 17 110 44 128
33 9 -6 11 -4 5 5 -5 8 -4 11 2 7 6 -4 27 -9 47 -12 20 -2 57 -18 81 -34 25
-17 55 -36 67 -42 l23 -12 -20 23 -20 23 30 -17 c17 -9 41 -23 55 -32 l25 -16
-25 22 c-21 18 -22 21 -5 15 30 -10 -28 48 -97 97 -32 23 -58 42 -58 44 0 2
11 -1 25 -6 16 -6 25 -6 25 0 0 6 8 10 18 10 12 1 7 10 -21 34 -40 36 -36 53
9 42 13 -4 36 -3 50 0 l25 6 -23 25 c-19 21 -21 26 -8 33 43 25 76 57 72 69
-3 8 0 11 7 7 13 -8 44 18 33 29 -4 3 5 4 19 0 20 -5 28 -2 33 11 4 9 4 19 2
22 -6 6 -99 -15 -153 -35 -23 -8 -47 -13 -55 -11 -7 3 21 15 62 27 41 12 107
33 145 46 65 22 67 24 33 24 -21 1 -38 -3 -38 -8z"/>
<path d="M3780 6925 c-7 -8 -15 -13 -19 -10 -6 3 -115 -75 -131 -95 -3 -3 -41
-37 -85 -76 -110 -97 -144 -130 -205 -199 -29 -33 -64 -73 -79 -90 -45 -50
-134 -168 -124 -164 6 2 45 47 89 99 116 139 265 292 280 286 7 -3 18 3 26 12
9 11 10 14 1 8 -7 -4 -13 -3 -13 1 0 5 23 26 50 47 28 21 55 47 61 58 5 10 14
16 19 13 4 -3 19 8 33 24 14 17 27 28 29 26 2 -2 24 13 48 35 25 22 42 39 39
40 -4 0 -12 -7 -19 -15z"/>
<path d="M4066 6740 c-21 -16 -47 -32 -57 -35 -9 -3 -20 -12 -23 -20 -3 -9 0
-12 10 -8 8 3 22 -1 32 -9 28 -23 130 -60 143 -52 7 4 9 3 6 -3 -3 -5 11 -15
31 -22 42 -14 149 -68 172 -86 8 -6 44 -24 80 -39 36 -15 86 -38 111 -52 26
-13 51 -24 55 -24 5 1 -13 12 -39 26 -27 14 -47 27 -45 30 6 5 200 -79 245
-107 19 -12 36 -19 38 -17 2 2 -11 12 -30 23 -19 10 -35 22 -35 28 0 5 17 -1
38 -13 20 -12 62 -36 92 -53 30 -17 63 -37 73 -45 11 -10 17 -11 17 -4 0 7 -3
12 -7 12 -5 0 -19 10 -33 21 -17 15 -19 19 -7 15 11 -4 16 -2 12 5 -4 6 -13 8
-20 6 -20 -8 -106 38 -155 84 -27 24 -34 35 -18 25 14 -8 41 -18 60 -21 33 -6
33 -6 13 14 -28 28 -301 191 -320 191 -8 0 -15 4 -15 9 0 5 -10 13 -22 17 -13
4 -55 22 -95 40 -40 19 -76 34 -81 34 -4 0 -19 6 -33 14 -14 7 -49 19 -78 26
-42 10 -54 10 -68 -1 -15 -12 -16 -12 -10 4 8 22 9 22 -37 -13z"/>
<path d="M3394 6557 c-87 -90 -133 -143 -248 -290 -32 -40 -45 -43 -25 -5 12
23 12 23 -9 5 -11 -10 -33 -37 -49 -60 -15 -23 -46 -67 -69 -97 -52 -69 -156
-242 -188 -312 -41 -89 -153 -379 -171 -445 -17 -61 -23 -67 -62 -66 -21 1
-15 -15 8 -22 17 -6 20 -12 15 -36 -3 -16 -8 -44 -11 -61 -4 -29 -4 -30 4 -8
8 20 9 15 9 -27 -1 -29 -5 -53 -10 -53 -4 0 -8 -8 -8 -17 0 -15 2 -16 10 -3
20 31 2 -236 -18 -280 -11 -23 -4 -517 7 -560 1 -3 4 -38 7 -79 2 -41 16 -133
30 -205 86 -439 310 -831 704 -1227 189 -190 442 -399 483 -399 28 0 27 2 -34
51 -35 28 -86 70 -114 92 -58 49 -289 265 -325 304 -78 84 -183 207 -233 269
-47 61 -179 251 -198 287 -10 20 -40 76 -54 103 -9 18 -15 21 -19 12 -3 -7 -3
-3 0 10 3 14 -6 46 -25 85 -70 146 -141 409 -170 630 -14 107 -18 127 -14 67
6 -107 -12 -98 -22 10 -4 41 -9 91 -12 110 -7 44 -4 379 3 403 5 14 19 17 102
18 81 1 92 3 70 12 l-28 11 0 113 0 113 41 0 c36 0 41 -3 54 -33 11 -28 11
-47 -1 -127 -7 -52 -13 -108 -13 -125 1 -16 7 8 14 55 15 92 24 130 35 145 4
6 9 46 11 90 4 70 2 80 -14 83 -12 2 -22 -7 -32 -32 -14 -33 -19 -36 -55 -36
l-40 0 0 115 0 115 70 0 c60 0 70 -3 71 -17 0 -15 2 -15 8 2 6 16 9 12 15 -20
8 -43 31 -75 53 -75 10 0 13 18 13 70 l0 70 -32 -2 c-30 -3 -33 -1 -30 22 l3
25 -13 -25 c-13 -23 -19 -25 -101 -28 -73 -2 -87 0 -87 13 0 44 144 396 178
438 9 9 12 20 9 24 -4 3 -2 12 5 20 6 7 8 16 4 20 -9 9 -15 0 -18 -28 -2 -13
-11 -27 -21 -31 -13 -6 -16 -14 -12 -28 3 -11 2 -20 -3 -20 -5 0 -15 -15 -23
-32 -7 -18 -23 -55 -35 -83 -45 -102 -72 -171 -88 -227 -17 -61 -26 -71 -49
-62 -13 5 -9 23 25 117 66 186 68 191 119 302 10 22 21 52 25 67 3 16 10 25
15 22 5 -3 12 3 15 13 13 41 77 163 86 163 5 0 8 6 5 13 -6 17 12 49 24 42 5
-4 9 1 9 10 0 10 6 15 13 12 9 -3 14 6 15 27 2 17 7 33 12 34 6 2 10 10 10 18
0 8 4 14 9 14 6 0 20 18 32 40 21 36 30 44 51 41 4 0 42 41 86 92 43 50 93
106 110 124 18 17 32 34 32 38 0 8 27 36 35 35 3 0 5 2 5 5 -1 3 15 22 35 43
19 20 35 41 35 45 0 5 6 5 13 1 6 -4 9 -3 4 1 -4 5 3 19 15 32 12 13 19 23 16
23 -3 0 -50 -46 -104 -103z"/>
<path d="M3195 5044 c-95 -235 -102 -247 -135 -263 l-35 -16 38 -3 c20 -2 54
-2 75 0 l37 3 -32 15 -31 15 22 55 22 55 92 3 93 3 23 -53 c35 -79 54 -92 139
-96 67 -2 70 -2 47 12 -19 11 -48 70 -129 265 -58 138 -110 251 -115 251 -6 0
-56 -111 -111 -246z m93 -1 c17 -43 34 -86 38 -95 5 -16 -2 -18 -76 -18 -62 0
-81 3 -77 13 37 95 73 177 78 177 3 0 19 -35 37 -77z"/>
<path d="M3805 5278 c-49 -18 -83 -47 -112 -95 -22 -39 -28 -62 -31 -135 -6
-119 9 -170 68 -229 116 -116 309 -81 345 64 4 16 3 27 -3 27 -5 0 -12 -14
-16 -31 -3 -17 -23 -49 -45 -70 -34 -34 -45 -39 -84 -39 -61 0 -109 40 -128
107 -17 59 -17 232 0 291 37 130 153 143 219 24 35 -63 52 -56 52 23 0 69 -12
82 -45 49 -15 -16 -19 -15 -55 5 -41 23 -113 27 -165 9z"/>
<path d="M4190 5215 c0 -49 3 -65 14 -65 17 0 42 37 54 81 8 31 11 34 48 34
l39 0 3 -241 2 -240 -27 -11 c-23 -9 -9 -11 80 -12 70 -1 106 3 102 9 -3 6
-13 10 -21 10 -12 0 -14 35 -12 243 l3 242 39 0 c37 0 39 -2 51 -43 15 -49 31
-72 51 -72 11 0 14 16 14 65 l0 65 -220 0 -220 0 0 -65z"/>
<path d="M4773 5268 l27 -10 0 -237 0 -237 -27 -11 c-22 -8 19 -11 180 -12
l207 -1 0 65 c0 46 -4 65 -13 65 -18 0 -47 -52 -47 -84 l0 -26 -90 0 -90 0 0
115 0 115 43 0 c40 0 44 -2 56 -35 7 -19 19 -35 27 -35 11 0 14 17 14 80 0 63
-3 80 -14 80 -8 0 -20 -16 -27 -35 -12 -33 -16 -35 -56 -35 l-43 0 0 120 0
121 76 -3 77 -3 12 -43 c15 -49 31 -72 51 -72 11 0 14 16 14 65 l0 65 -202 -1
c-148 0 -196 -3 -175 -11z"/>
<path d="M5323 5268 l27 -10 0 -237 0 -237 -27 -11 c-23 -9 -6 -11 87 -11 93
0 110 2 88 11 l-28 11 0 104 0 103 25 -3 c22 -3 32 -17 65 -93 53 -119 72
-135 158 -135 65 0 66 1 45 18 -12 9 -38 51 -57 93 -34 77 -73 119 -107 119
-35 0 -19 17 22 24 28 5 53 18 75 40 30 30 34 41 34 84 0 67 -32 106 -103 127
-60 18 -353 21 -304 3z m244 -24 c29 -18 46 -76 40 -132 -6 -59 -50 -102 -102
-102 l-35 0 0 130 0 131 38 -7 c20 -3 47 -12 59 -20z"/>
<path d="M5913 5268 l27 -10 0 -237 0 -237 -27 -11 c-22 -8 19 -11 180 -12
l207 -1 0 65 c0 46 -4 65 -13 65 -18 0 -47 -52 -47 -84 l0 -26 -90 0 -90 0 0
115 0 115 43 0 c40 0 44 -2 56 -35 7 -19 19 -35 27 -35 11 0 14 17 14 80 0 63
-3 80 -14 80 -8 0 -20 -16 -27 -35 -12 -33 -16 -35 -56 -35 l-43 0 0 120 0
121 76 -3 77 -3 12 -43 c15 -49 31 -72 51 -72 11 0 14 16 14 65 l0 65 -202 -1
c-148 0 -196 -3 -175 -11z"/>
<path d="M6458 5270 c22 -9 22 -10 22 -248 0 -238 0 -239 -22 -250 -18 -8 2
-11 92 -10 94 0 109 2 83 10 l-33 11 0 103 0 104 29 0 c26 0 31 -7 67 -91 51
-119 74 -139 160 -139 41 0 63 4 59 10 -3 6 -12 10 -19 10 -6 0 -29 38 -50 85
-39 86 -72 125 -107 125 -35 0 -19 17 22 24 62 10 109 61 109 118 0 55 -27 99
-76 123 -32 16 -66 20 -199 22 -109 2 -153 0 -137 -7z m254 -38 c48 -45 47
-153 -2 -197 -11 -10 -40 -20 -65 -22 l-45 -6 0 125 c0 69 3 128 7 131 13 14
78 -6 105 -31z"/>
<path d="M7048 5270 c22 -9 22 -10 22 -248 0 -238 0 -239 -22 -250 -17 -8 28
-11 185 -11 l207 -1 0 66 c0 57 -2 65 -17 62 -11 -2 -26 -24 -38 -55 l-20 -53
-87 0 -88 0 0 115 0 115 45 0 c42 0 46 -2 59 -35 8 -19 22 -35 30 -35 13 0 16
14 16 80 0 66 -3 80 -16 80 -8 0 -22 -16 -30 -35 -13 -33 -17 -35 -59 -35
l-46 0 3 118 3 117 80 0 79 0 7 -32 c8 -42 35 -83 54 -83 12 0 15 14 15 65 l0
65 -202 -1 c-132 0 -195 -3 -180 -9z"/>
<path d="M2940 4402 c0 -6 6 -45 14 -88 8 -44 19 -113 26 -154 9 -49 15 -68
20 -56 3 11 14 -41 23 -120 10 -76 24 -151 32 -166 7 -16 10 -26 5 -23 -5 3
-10 -9 -12 -27 -3 -29 -5 -28 -12 17 -13 83 -38 196 -43 192 -4 -5 10 -104 28
-192 15 -73 58 -215 76 -252 19 -40 62 -167 58 -171 -2 -2 -13 13 -25 35 -12
21 -19 30 -16 21 3 -10 2 -18 -2 -18 -16 0 -51 105 -45 133 5 25 -2 52 -38
142 -7 17 -11 37 -10 46 1 8 -3 26 -9 40 -10 23 -10 23 -5 -4 4 -18 2 -26 -4
-23 -6 4 -7 -5 -1 -24 5 -17 9 -34 10 -38 4 -36 24 -84 36 -89 7 -3 14 -9 14
-14 0 -4 -7 -6 -15 -3 -24 10 -18 -19 26 -118 22 -51 45 -106 51 -123 17 -51
56 -125 71 -136 5 -3 8 -9 8 -13 -2 -8 19 -39 82 -119 26 -33 45 -67 42 -75
-2 -7 -1 -11 4 -8 5 3 42 -29 82 -72 40 -42 69 -70 64 -62 -6 12 -5 12 5 3 7
-6 18 -22 24 -35 6 -12 17 -23 23 -23 14 0 28 -13 28 -27 0 -6 9 -12 20 -14
11 -2 31 -16 45 -32 14 -16 57 -54 95 -83 39 -29 94 -72 124 -95 30 -24 57
-43 60 -42 19 2 31 -3 31 -13 0 -5 -4 -7 -10 -4 -5 3 -10 4 -10 1 0 -3 10 -10
21 -17 17 -9 20 -8 14 2 -5 8 -4 10 3 5 7 -4 12 -13 12 -21 0 -7 7 -16 16 -19
10 -4 13 -2 8 6 -4 6 4 4 17 -5 13 -10 24 -23 24 -30 0 -6 8 -12 17 -12 9 0
20 -4 25 -9 5 -5 2 -6 -6 -1 -10 5 -12 4 -7 -4 4 -6 12 -9 17 -5 5 3 26 -7 47
-22 27 -21 50 -29 85 -31 27 -1 45 2 42 8 -4 5 3 9 14 9 11 0 22 -4 26 -9 8
-14 529 -14 596 0 152 32 368 106 362 124 -3 11 48 47 109 78 20 10 43 26 50
34 12 14 11 15 -9 5 -29 -16 -36 -15 -29 4 3 9 3 14 -1 12 -5 -2 -41 -20 -80
-41 -40 -20 -86 -37 -102 -37 -16 0 -59 -13 -96 -30 -37 -16 -72 -30 -77 -30
-6 0 -51 -16 -99 -35 -94 -37 -122 -44 -76 -19 50 27 21 26 -47 -1 -95 -38
-124 -45 -149 -35 l-22 8 25 11 c28 13 38 14 -99 -15 -72 -15 -88 -13 -39 6
18 6 43 17 56 23 21 10 22 12 6 18 -16 5 -14 8 11 17 30 12 30 12 -7 7 -23 -4
-38 -2 -38 5 0 5 -12 10 -27 11 l-28 1 30 10 c17 6 39 17 50 26 19 13 18 14
-9 8 -15 -4 -42 -10 -60 -13 l-31 -5 34 26 c19 14 39 26 44 26 4 0 6 4 2 9 -3
5 5 17 17 25 28 20 18 20 -52 1 -73 -20 -84 -18 -35 6 22 11 31 17 20 14 l-20
-5 20 16 c16 13 16 15 3 11 -20 -7 -34 8 -16 17 7 4 -12 4 -42 2 l-55 -4 41
18 c45 20 65 40 40 40 -8 0 -54 -10 -101 -22 -57 -14 -89 -18 -93 -11 -4 5
-14 13 -22 16 -11 4 -9 6 6 6 11 1 37 9 58 19 l38 19 -83 -5 c-46 -2 -82 -2
-79 1 3 3 46 15 95 26 50 10 101 24 115 30 l25 10 -25 1 c-18 2 -11 7 27 19
63 20 80 33 26 20 -55 -14 -216 -39 -221 -35 -2 2 12 7 30 11 53 11 68 16 68
24 0 4 -14 5 -31 3 -22 -3 -30 -1 -25 7 5 7 -3 11 -21 12 -20 0 -12 5 27 15
70 19 221 61 280 78 45 13 44 13 -50 13 -55 -1 -84 -4 -70 -8 l25 -7 -25 -2
c-14 -1 -45 -1 -70 0 -25 0 -81 -6 -125 -15 -44 -8 -107 -17 -140 -20 l-60 -4
53 13 c30 8 63 18 75 23 12 6 63 18 112 27 125 24 206 47 199 57 -3 5 2 6 11
2 10 -3 20 -1 24 4 3 5 15 15 26 21 l20 11 -20 1 c-11 0 -45 -7 -75 -15 -57
-15 -98 -19 -87 -9 3 3 29 12 59 20 42 11 45 12 13 8 -118 -15 -120 -15 -103
-5 9 6 63 22 120 36 88 20 268 95 268 111 0 2 -12 2 -27 -1 -22 -5 -17 0 17
19 45 25 39 31 -19 20 -17 -4 -28 -10 -25 -15 3 -5 -1 -6 -9 -3 -8 3 -22 -3
-32 -12 -11 -11 -32 -18 -54 -17 -28 0 -31 -1 -16 -7 19 -8 19 -9 1 -9 -11 -1
-17 -4 -13 -7 3 -3 27 1 53 10 55 19 61 19 48 7 -12 -13 -220 -71 -251 -71
-14 0 -22 4 -18 10 4 7 -2 9 -17 6 -110 -25 -161 -35 -208 -40 -76 -9 -44 8
45 24 113 20 232 48 205 49 -14 1 -59 -5 -100 -13 -41 -8 -115 -17 -165 -20
-70 -4 -79 -3 -40 4 60 10 236 38 285 45 19 3 51 10 70 15 31 8 29 9 -15 4
-68 -8 -55 0 42 25 96 24 96 24 87 10 -4 -8 4 -9 27 -4 45 10 75 27 34 20 -25
-4 -22 -1 15 17 25 11 40 23 33 25 -7 2 -20 0 -30 -6 -73 -38 -455 -112 -575
-110 -51 1 -57 2 -33 9 17 4 60 11 97 15 36 3 74 13 85 22 15 12 15 14 1 9
-25 -8 -144 -19 -138 -13 12 12 144 26 156 16 9 -7 22 -5 43 6 17 8 76 26 131
39 96 23 147 42 84 31 -44 -7 -207 -36 -226 -40 -20 -4 -24 11 -5 18 6 3 -1 6
-18 7 -16 1 31 14 105 30 128 26 286 69 340 92 57 23 110 53 110 61 0 4 -3 6
-7 4 -108 -63 -363 -133 -568 -155 -55 -6 -146 -16 -202 -22 -67 -7 -109 -8
-120 -1 -16 8 -15 10 7 15 14 3 68 8 120 11 172 11 215 17 226 31 6 8 24 14
40 15 16 0 38 4 49 9 17 7 14 9 -15 10 -35 2 -34 2 13 15 27 7 52 17 55 21 4
4 -1 4 -11 1 -36 -13 -300 -47 -355 -46 -51 1 -53 2 -22 9 30 6 26 8 -27 9
-35 0 -63 -3 -63 -8 0 -6 9 -8 20 -6 23 4 27 -10 6 -18 -7 -3 -23 5 -35 19
-11 13 -28 24 -36 24 -8 0 -15 3 -15 8 0 4 45 5 99 2 118 -6 125 5 10 15 -44
4 -93 11 -107 16 -17 5 -6 5 28 1 112 -14 371 -7 430 11 l55 17 -60 -8 c-114
-14 -413 -7 -505 12 -87 18 -143 39 -85 32 17 -2 23 -1 15 1 -288 91 -431 191
-558 388 -24 39 -51 74 -58 78 -8 4 -26 29 -40 55 -15 26 -40 68 -55 93 -35
56 -65 189 -50 218 6 11 9 26 6 33 -8 17 -55 52 -55 40z"/>
<path d="M2520 4290 c-8 -73 11 -294 31 -362 11 -38 12 -84 2 -74 -4 3 -8 17
-10 29 -3 21 -24 115 -42 187 -21 80 -9 -16 19 -156 38 -195 86 -335 175 -519
104 -214 218 -381 402 -592 136 -155 398 -402 411 -388 3 3 11 -4 18 -14 14
-20 117 -91 131 -91 4 0 3 4 -3 8 -18 11 -115 93 -146 124 -16 14 -28 24 -28
21 0 -3 -8 1 -18 10 -10 10 -22 14 -27 10 -4 -5 -5 -3 -2 3 3 6 -51 64 -120
130 -114 108 -269 286 -349 401 -18 24 -41 54 -53 67 -12 12 -21 28 -21 34 0
7 -4 12 -8 12 -6 0 -19 24 -39 75 -3 6 9 -6 26 -25 17 -19 31 -39 31 -44 0 -4
13 -25 29 -45 15 -20 50 -67 76 -106 78 -113 169 -212 340 -372 175 -162 353
-303 383 -303 20 0 7 13 -62 64 -47 36 -122 98 -167 138 -45 40 -87 72 -94 72
-17 -2 -264 251 -341 348 -113 143 -200 280 -288 450 -97 187 -141 307 -182
503 -19 88 -39 176 -45 195 -5 19 -13 80 -18 135 -4 55 -9 89 -11 75z"/>
<path d="M1986 3828 c44 -304 204 -653 453 -983 119 -159 286 -346 346 -387
26 -19 11 0 -85 102 -33 35 -133 156 -195 235 -43 55 -84 103 -91 108 -15 8
-160 240 -197 314 -13 26 -40 89 -60 138 -20 50 -52 128 -72 175 -40 92 -69
194 -80 277 -4 29 -11 56 -16 59 -6 3 -7 -12 -3 -38z"/>
<path d="M2506 3793 c3 -27 10 -52 15 -57 5 -6 9 -19 9 -31 0 -12 6 -27 12
-33 9 -9 9 -15 2 -20 -12 -8 6 -82 21 -85 6 -1 10 -11 10 -22 1 -34 16 -66 27
-59 7 5 9 2 5 -8 -3 -10 22 -61 65 -129 39 -63 71 -118 72 -124 10 -52 90
-170 107 -159 5 3 6 -2 3 -10 -3 -9 -2 -16 3 -16 6 0 22 -22 36 -49 34 -61 52
-78 61 -55 4 11 -6 32 -29 60 -125 152 -284 453 -356 674 -24 74 -48 138 -53
141 -5 4 -5 12 -2 18 4 6 2 11 -4 11 -8 0 -9 -15 -4 -47z"/>
<path d="M2777 3815 c6 -32 40 -139 68 -215 58 -158 210 -423 323 -565 208
-259 731 -740 785 -722 6 2 -22 26 -63 54 -84 57 -275 218 -394 332 -76 74
-243 258 -320 354 -118 146 -306 492 -361 667 -32 102 -47 139 -38 95z"/>
<path d="M4530 3554 c-117 -29 -299 -64 -390 -73 -88 -10 -150 -9 -305 3 l-60
5 70 -14 c104 -20 342 -26 455 -10 115 16 151 25 145 35 -3 4 15 13 40 19 56
14 68 14 60 -1 -4 -7 0 -5 8 5 8 9 32 24 53 31 38 14 38 15 9 14 -16 0 -55 -6
-85 -14z"/>
</g>
</svg>
